<?xml version="1.0" encoding="utf-8"?><!-- Uploaded to: SVG Repo, www.svgrepo.com, Generator: SVG Repo Mixer Tools -->
<svg fill="#000000" width="800px" height="800px" viewBox="0 0 24 24" id="meteor-2" data-name="Flat Color" xmlns="http://www.w3.org/2000/svg" class="icon flat-color"><path id="secondary" d="M9.11,15.76a1,1,0,0,1-.71-.29L7,14.06A1,1,0,0,1,8.4,12.64l1.41,1.42a1,1,0,0,1,0,1.41A1,1,0,0,1,9.11,15.76ZM11,12a1,1,0,0,1-.71-.3L6.79,8.21A1,1,0,1,1,8.21,6.79l3.53,3.54a1,1,0,0,1,0,1.41A1,1,0,0,1,11,12Zm-6.37-.71A1,1,0,0,1,4,11L2.55,9.62A1,1,0,1,1,4,8.21L5.38,9.62a1,1,0,0,1,0,1.42A1,1,0,0,1,4.67,11.33Zm10.09-1.22a1,1,0,0,1-.7-.3L12.64,8.4a1,1,0,0,1,0-1.41,1,1,0,0,1,1.42,0L15.47,8.4a1,1,0,0,1,0,1.41A1,1,0,0,1,14.76,10.11ZM10.33,5.67a1,1,0,0,1-.71-.29L8.21,4a1,1,0,0,1,0-1.42,1,1,0,0,1,1.41,0L11,4a1,1,0,0,1,0,1.42A1,1,0,0,1,10.33,5.67ZM4.41,5.41a1,1,0,0,1-.7-.29L2.29,3.71A1,1,0,0,1,3.71,2.29L5.12,3.71a1,1,0,0,1,0,1.41A1,1,0,0,1,4.41,5.41Z" style="fill: rgb(44, 169, 188);"></path><circle id="primary" cx="17" cy="17" r="5" style="fill: rgb(0, 0, 0);"></circle></svg>