<svg width="800" height="800" viewBox="0 0 64 64" xmlns="http://www.w3.org/2000/svg" role="img" aria-label="Interdimensional TV">
  <defs>
    <radialGradient id="screenGlow" cx="45%" cy="45%" r="65%">
      <stop offset="0" stop-color="#e7ff7a"/>
      <stop offset="0.42" stop-color="#39e75f"/>
      <stop offset="1" stop-color="#0ea5e9"/>
    </radialGradient>
    <linearGradient id="caseGlow" x1="10" x2="54" y1="16" y2="52" gradientUnits="userSpaceOnUse">
      <stop offset="0" stop-color="#38bdf8"/>
      <stop offset="1" stop-color="#1f2b47"/>
    </linearGradient>
  </defs>

  <path fill="#0a0a14" d="M24.18 13.63 18.52 6.8a2.18 2.18 0 0 1 3.36-2.78l6.46 7.8a17.1 17.1 0 0 1 7.23-.02l6.4-7.77a2.18 2.18 0 1 1 3.36 2.78l-5.6 6.8c7.6.92 13.34 5.58 13.34 11.18v19.77c0 6.36-7.42 11.5-16.58 11.5h-8.97c-9.16 0-16.58-5.14-16.58-11.5V24.8c0-5.6 5.72-10.26 13.24-11.17Z"/>
  <path fill="url(#caseGlow)" d="M27.5 15.52h9.03c7.57 0 13.7 4.15 13.7 9.27v19.77c0 5.1-6.13 9.27-13.7 9.27H27.5c-7.56 0-13.7-4.16-13.7-9.27V24.79c0-5.12 6.14-9.27 13.7-9.27Z"/>
  <path fill="#12121f" d="M18.04 23.42c0-2.16 2.63-3.91 5.88-3.91h18.06c3.25 0 5.88 1.75 5.88 3.91v20.27c0 2.16-2.63 3.9-5.88 3.9H23.92c-3.25 0-5.88-1.74-5.88-3.9V23.42Z"/>
  <path fill="url(#screenGlow)" d="M21.42 25.5c0-1.5 1.77-2.72 3.96-2.72h13.36c2.19 0 3.96 1.22 3.96 2.72v15.88c0 1.5-1.77 2.72-3.96 2.72H25.38c-2.19 0-3.96-1.22-3.96-2.72V25.5Z"/>
  <path fill="#e7ff7a" fill-opacity=".42" d="M24.4 25.36c2.6-1.1 7.13-.92 10.77.52 3.9 1.54 5.83 4.1 4.29 5.72-1.54 1.62-5.98 1.69-9.9.15-2.63-1.04-4.36-2.52-4.75-3.88 2.04 1.7 5.76 2.83 8.74 2.43 1.73-.23 2.67-1.02 2.08-1.77-.6-.76-2.5-1.2-4.23-.98-1.3.18-2.16.68-2.22 1.24-1.98-.82-3.5-1.96-4.13-3.15-.18-.1-.4-.2-.65-.28Z"/>
  <path fill="#0a0a14" d="M36.4 35.36c0 .36-.27.7-.76.94l-7.43 3.7c-1.02.5-2.33.03-2.33-.84v-7.4c0-.87 1.31-1.34 2.33-.84l7.43 3.7c.49.24.76.58.76.94Z"/>
  <path fill="#e7ff7a" d="m29.02 33.8 4.1 2.04-4.1 2.05V33.8Z"/>
  <path fill="#0a0a14" d="M44.96 23.64h1.96c.87 0 1.58.55 1.58 1.23v17.38c0 .68-.7 1.23-1.58 1.23h-1.96c-.88 0-1.58-.55-1.58-1.23V24.87c0-.68.7-1.23 1.58-1.23Z"/>
  <path fill="#38bdf8" d="M45.93 27.7a1.82 1.82 0 1 0 0-3.64 1.82 1.82 0 0 0 0 3.64Zm0 7.8a1.82 1.82 0 1 0 0-3.64 1.82 1.82 0 0 0 0 3.64Z"/>
  <path fill="#39e75f" d="M26.44 56h11.12l1.26 3.62H25.18L26.44 56Z"/>
  <path fill="#0a0a14" fill-opacity=".42" d="M16.74 24.15c0-4.58 5.25-8.3 11.72-8.3h8.36c3.32 0 6.32.98 8.45 2.57-2.33-.77-5.1-.84-7.78-.28l-15.3 3.17c-2.31.48-4.18 1.52-5.45 2.84Z"/>
</svg>
